<?xml version="1.0" standalone="no"?>
<!DOCTYPE svg PUBLIC "-//W3C//DTD SVG 20010904//EN"
 "http://www.w3.org/TR/2001/REC-SVG-20010904/DTD/svg10.dtd">
<svg version="1.0" xmlns="http://www.w3.org/2000/svg"
 width="500.000000pt" height="500.000000pt" viewBox="0 0 500.000000 500.000000"
 preserveAspectRatio="xMidYMid meet">

<g transform="translate(0.000000,500.000000) scale(0.100000,-0.100000)"
fill="#000000" stroke="none">
<path d="M1195 3274 c-236 -411 -434 -754 -438 -764 -6 -12 102 -209 423 -766
237 -412 434 -752 438 -756 5 -5 400 -7 879 -6 l870 3 -430 745 c-236 410
-432 753 -434 762 -3 10 168 316 418 750 232 403 429 743 437 756 l14 22 -873
0 -874 0 -430 -746z"/>
</g>
</svg>
